<?xml version="1.0" encoding="UTF-8" standalone="no"?>
<svg
   xmlns:dc="http://purl.org/dc/elements/1.1/"
   xmlns:cc="http://creativecommons.org/ns#"
   xmlns:rdf="http://www.w3.org/1999/02/22-rdf-syntax-ns#"
   xmlns:svg="http://www.w3.org/2000/svg"
   xmlns="http://www.w3.org/2000/svg"
   id="svg847"
   version="1.1"
   viewBox="0 0 264.58333 264.58334"
   height="1000"
   width="1000">
  <defs
     id="defs841" />
  <metadata
     id="metadata844">
    <rdf:RDF>
      <cc:Work
         rdf:about="">
        <dc:format>image/svg+xml</dc:format>
        <dc:type
           rdf:resource="http://purl.org/dc/dcmitype/StillImage" />
        <dc:title></dc:title>
      </cc:Work>
    </rdf:RDF>
  </metadata>
  <g
     style="display:inline;opacity:1"
     transform="translate(0,-32.41665)"
     id="layer1">
    <g
       style="fill:none;fill-opacity:1;stroke:#010101;stroke-width:2.43416668;stroke-miterlimit:4;stroke-dasharray:none;stroke-opacity:1"
       transform="rotate(-15,178.58211,118.92543)"
       id="g5149">
      <path
         d="m 90.062471,81.019841 c 18.281229,0.54717 15.130909,0.452877 21.888559,0.655139 L 114.25517,68.82272 92.366626,68.167582 Z M 200.81924,63.956271 c -41.99116,25.007208 -52.4579,29.894951 -94.44906,54.902159 1.75854,-9.91674 3.51709,-19.833465 5.27563,-29.750199 L 89.933443,88.92285 83.183298,126.61569 c -23.634266,12.91215 -45.0317,34.38468 -44.225394,61.27502 0.241904,15.80079 7.747756,33.39848 24.524269,41.50553 21.051763,12.15038 50.246637,11.32449 72.418387,6.5692 -1.81503,-21.41305 0.22219,1.11346 -1.85227,-20.74374 -15.82236,3.30469 -35.854066,5.57083 -50.050891,-0.49854 -14.196825,-6.06933 -19.827894,-17.45091 -19.798995,-28.94924 0.0289,-11.49832 9.992036,-22.20397 21.699187,-30.48449 11.707152,-8.28054 10.330796,-7.0944 37.751719,-21.81646 27.42092,-14.72207 41.5045,-22.68745 78.01897,-44.090905 z"
         style="fill:none;fill-opacity:1;stroke:#010101;stroke-width:2.43416668;stroke-linecap:butt;stroke-linejoin:miter;stroke-miterlimit:4;stroke-dasharray:none;stroke-opacity:1"
         id="path1437" />
    </g>
  </g>
</svg>
